<svg xmlns="http://www.w3.org/2000/svg" viewBox="0 0 285.5 221.75"><defs><style>.cls-1{fill:#8ea604;}.cls-2{fill:#eadcd8;}</style></defs><title>image</title><g id="Ebene_2" data-name="Ebene 2"><g id="Ebene_1-2" data-name="Ebene 1"><path class="cls-1" d="M0,0H285.5V221.75c-.72,0-1.44-.05-2.15-.05H.05V2.15C.05,1.44,0,.72,0,0ZM28.55,192.43H257V29.32H28.55Z"/><path class="cls-2" d="M28.55,192.43V29.32H257V192.43ZM171.11,74.05l-34.63,49.12-18.67-18.09-54,56.48H230.09ZM84.5,93A21.59,21.59,0,1,0,62.88,71.4,21.62,21.62,0,0,0,84.5,93Z"/><path class="cls-1" d="M171.11,74.05l59,87.51H63.84l54-56.48,18.67,18.09Z"/><path class="cls-1" d="M84.5,93A21.59,21.59,0,1,1,106.13,71.4,21.63,21.63,0,0,1,84.5,93Z"/></g></g></svg>