<svg xmlns="http://www.w3.org/2000/svg" viewBox="0 0 285.5 285.5"><defs><style>.cls-1{fill:#3f88c5;}.cls-2{fill:#e0e0e0;}</style></defs><title>person</title><g id="Ebene_2" data-name="Ebene 2"><g id="Ebene_1-2" data-name="Ebene 1"><path class="cls-1" d="M285.5,142.77c0,78.8-64.1,142.89-142.84,142.73S0,221.44,0,142.83,64.38-.17,142.93,0,285.46,64.1,285.5,142.77Zm-58.77,89.67A123,123,0,1,0,22.36,117C12,164.69,32.17,209.52,59.14,232.27a2.06,2.06,0,0,0,.34-.51c.13-.51.23-1,.31-1.55,3.66-22.08,16.09-36.45,38-41.54a182.33,182.33,0,0,1,30.81-4.17c19.2-1.1,38.43-.9,57.34,3.41,20.49,4.66,34.34,16.39,39.31,37.4C225.75,227.57,226.18,229.85,226.73,232.44Z"/><path class="cls-2" d="M226.73,232.44c-.55-2.59-1-4.87-1.51-7.13-5-21-18.82-32.74-39.31-37.4-18.91-4.31-38.14-4.51-57.34-3.41a182.33,182.33,0,0,0-30.81,4.17c-21.88,5.09-34.31,19.46-38,41.54-.08.52-.18,1-.31,1.55a1.86,1.86,0,0,1-.35.51C32.17,209.52,12,164.69,22.36,117A123.06,123.06,0,1,1,226.73,232.44Zm-37-130.86a46.7,46.7,0,1,0-46.54,46.7A46.84,46.84,0,0,0,189.72,101.58Z"/><path class="cls-1" d="M189.72,101.58a46.7,46.7,0,1,1-46.54-46.7A46.84,46.84,0,0,1,189.72,101.58Z"/></g></g></svg>